# xmcd
#
# Track frame offsets:
#	150
#	19090
#	32295
#	49062
#	64811
#	81811
#	103491
#	134519
#	153975
#	165983
#	183483
#	201331
#	226279
#	239356
#	260784
#	280276
#	296996
#	317146
#	332066
#
# Disc length: 4604 seconds
#
# Revision: 0
# Processed by: cddbd v1.5.2PL0 Copyright (c) Steve Scherf et al.
# Submitted via: EasyCDDAExtractor 12.1.0.1
#
DISCID=1b11fa13
DTITLE=Various Artist - 워너뮤직의 숨은 팝 걸장 CD1
DYEAR=1900
DGENRE=pop
TTITLE0=New Trolls - Quella Carezza Della Sera
TTITLE1=Bread - Lost Without Your Love
TTITLE2=Tower Of Power - So Very Hard To Go
TTITLE3=Rickie Lee Jones - Chuck E's In Love
TTITLE4=The Doobie Brothers - What A Fool Believes
TTITLE5=Ambrosia - How Much I Feel
TTITLE6=Chris Rea - On The Beach
TTITLE7=Peabo Bryson - If Ever You're In My Arms Again
TTITLE8=England Dan and John Ford Coley - I'd Really Love To See You Tonight
TTITLE9=Seals and Crofts - Windflowers
TTITLE10=Linda Ronstadt - Blue Bayou
TTITLE11=Opus Ⅲ - It's A Fine Day
TTITLE12=Phil Collins - You Can't Hurry Love
TTITLE13=David Lee Roth - Just A Gigolo/I Ain't Got Nobody
TTITLE14=Everything But The Girl - I Don't Want To Talk About It
TTITLE15=The Cars - My Best Friend's Girl
TTITLE16=Saigon Kick - Love Is On The Way
TTITLE17=Randy Crawford - One Hello
TTITLE18=Manhattan Transfer - Chanson D'amour
EXTD=
EXTT0=
EXTT1=
EXTT2=
EXTT3=
EXTT4=
EXTT5=
EXTT6=
EXTT7=
EXTT8=
EXTT9=
EXTT10=
EXTT11=
EXTT12=
EXTT13=
EXTT14=
EXTT15=
EXTT16=
EXTT17=
EXTT18=
PLAYORDER=
